<svg xmlns="http://www.w3.org/2000/svg" width="512" height="512" viewBox="0 0 512 512"><defs><filter id="soft" x="-50%" y="-50%" width="200%" height="200%"><feGaussianBlur stdDeviation="14"/></filter><filter id="run" x="-300%" y="-20%" width="700%" height="140%"><feGaussianBlur stdDeviation="2"/></filter></defs><g filter="url(#soft)"><ellipse cx="255.7" cy="-178.4" rx="68.9" ry="43.2" fill="#8c8266" opacity="0.36" transform="rotate(-20.2 255.7 -178.4)"/><ellipse cx="255.7" cy="333.6" rx="68.9" ry="43.2" fill="#8c8266" opacity="0.36" transform="rotate(-20.2 255.7 333.6)"/><ellipse cx="44.5" cy="-67.3" rx="50.1" ry="50.7" fill="#8c8266" opacity="0.46" transform="rotate(-14.7 44.5 -67.3)"/><ellipse cx="44.5" cy="444.7" rx="50.1" ry="50.7" fill="#8c8266" opacity="0.46" transform="rotate(-14.7 44.5 444.7)"/><ellipse cx="556.5" cy="-67.3" rx="50.1" ry="50.7" fill="#8c8266" opacity="0.46" transform="rotate(-14.7 556.5 -67.3)"/><ellipse cx="556.5" cy="444.7" rx="50.1" ry="50.7" fill="#8c8266" opacity="0.46" transform="rotate(-14.7 556.5 444.7)"/><ellipse cx="140.5" cy="-11.6" rx="89.7" ry="65.6" fill="#8c8266" opacity="0.46" transform="rotate(4.1 140.5 -11.6)"/><ellipse cx="140.5" cy="500.4" rx="89.7" ry="65.6" fill="#8c8266" opacity="0.46" transform="rotate(4.1 140.5 500.4)"/><ellipse cx="652.5" cy="-11.6" rx="89.7" ry="65.6" fill="#8c8266" opacity="0.46" transform="rotate(4.1 652.5 -11.6)"/><ellipse cx="652.5" cy="500.4" rx="89.7" ry="65.6" fill="#8c8266" opacity="0.46" transform="rotate(4.1 652.5 500.4)"/><ellipse cx="-168.2" cy="179.1" rx="108.0" ry="33.9" fill="#8c8266" opacity="0.38" transform="rotate(-7.0 -168.2 179.1)"/><ellipse cx="-168.2" cy="691.1" rx="108.0" ry="33.9" fill="#8c8266" opacity="0.38" transform="rotate(-7.0 -168.2 691.1)"/><ellipse cx="343.8" cy="179.1" rx="108.0" ry="33.9" fill="#8c8266" opacity="0.38" transform="rotate(-7.0 343.8 179.1)"/><ellipse cx="343.8" cy="691.1" rx="108.0" ry="33.9" fill="#8c8266" opacity="0.38" transform="rotate(-7.0 343.8 691.1)"/><ellipse cx="269.0" cy="-129.4" rx="113.1" ry="39.0" fill="#8c8266" opacity="0.43" transform="rotate(2.9 269.0 -129.4)"/><ellipse cx="269.0" cy="382.6" rx="113.1" ry="39.0" fill="#8c8266" opacity="0.43" transform="rotate(2.9 269.0 382.6)"/><ellipse cx="32.4" cy="320.3" rx="128.7" ry="61.9" fill="#8c8266" opacity="0.43" transform="rotate(-2.7 32.4 320.3)"/><ellipse cx="544.4" cy="320.3" rx="128.7" ry="61.9" fill="#8c8266" opacity="0.43" transform="rotate(-2.7 544.4 320.3)"/><ellipse cx="265.5" cy="-154.6" rx="77.9" ry="37.1" fill="#8c8266" opacity="0.57" transform="rotate(17.9 265.5 -154.6)"/><ellipse cx="265.5" cy="357.4" rx="77.9" ry="37.1" fill="#8c8266" opacity="0.57" transform="rotate(17.9 265.5 357.4)"/><ellipse cx="97.3" cy="-80.1" rx="77.2" ry="33.9" fill="#8c8266" opacity="0.35" transform="rotate(-16.5 97.3 -80.1)"/><ellipse cx="97.3" cy="431.9" rx="77.2" ry="33.9" fill="#8c8266" opacity="0.35" transform="rotate(-16.5 97.3 431.9)"/><ellipse cx="609.3" cy="-80.1" rx="77.2" ry="33.9" fill="#8c8266" opacity="0.35" transform="rotate(-16.5 609.3 -80.1)"/><ellipse cx="609.3" cy="431.9" rx="77.2" ry="33.9" fill="#8c8266" opacity="0.35" transform="rotate(-16.5 609.3 431.9)"/><ellipse cx="180.6" cy="52.9" rx="56.3" ry="47.4" fill="#8c8266" opacity="0.59" transform="rotate(-29.9 180.6 52.9)"/><ellipse cx="180.6" cy="564.9" rx="56.3" ry="47.4" fill="#8c8266" opacity="0.59" transform="rotate(-29.9 180.6 564.9)"/><ellipse cx="-16.4" cy="306.4" rx="102.6" ry="37.4" fill="#8c8266" opacity="0.56" transform="rotate(3.6 -16.4 306.4)"/><ellipse cx="495.6" cy="306.4" rx="102.6" ry="37.4" fill="#8c8266" opacity="0.56" transform="rotate(3.6 495.6 306.4)"/><ellipse cx="110.7" cy="-115.2" rx="97.9" ry="56.1" fill="#8c8266" opacity="0.55" transform="rotate(31.6 110.7 -115.2)"/><ellipse cx="110.7" cy="396.8" rx="97.9" ry="56.1" fill="#8c8266" opacity="0.55" transform="rotate(31.6 110.7 396.8)"/><ellipse cx="622.7" cy="-115.2" rx="97.9" ry="56.1" fill="#8c8266" opacity="0.55" transform="rotate(31.6 622.7 -115.2)"/><ellipse cx="622.7" cy="396.8" rx="97.9" ry="56.1" fill="#8c8266" opacity="0.55" transform="rotate(31.6 622.7 396.8)"/><ellipse cx="-134.2" cy="13.3" rx="101.6" ry="69.6" fill="#8c8266" opacity="0.53" transform="rotate(21.5 -134.2 13.3)"/><ellipse cx="-134.2" cy="525.3" rx="101.6" ry="69.6" fill="#8c8266" opacity="0.53" transform="rotate(21.5 -134.2 525.3)"/><ellipse cx="377.8" cy="13.3" rx="101.6" ry="69.6" fill="#8c8266" opacity="0.53" transform="rotate(21.5 377.8 13.3)"/><ellipse cx="377.8" cy="525.3" rx="101.6" ry="69.6" fill="#8c8266" opacity="0.53" transform="rotate(21.5 377.8 525.3)"/><ellipse cx="208.4" cy="245.1" rx="108.5" ry="50.3" fill="#8c8266" opacity="0.58" transform="rotate(34.3 208.4 245.1)"/><ellipse cx="154.9" cy="91.2" rx="73.6" ry="39.5" fill="#8c8266" opacity="0.37" transform="rotate(35.0 154.9 91.2)"/><ellipse cx="154.9" cy="603.2" rx="73.6" ry="39.5" fill="#8c8266" opacity="0.37" transform="rotate(35.0 154.9 603.2)"/><ellipse cx="666.9" cy="91.2" rx="73.6" ry="39.5" fill="#8c8266" opacity="0.37" transform="rotate(35.0 666.9 91.2)"/><ellipse cx="666.9" cy="603.2" rx="73.6" ry="39.5" fill="#8c8266" opacity="0.37" transform="rotate(35.0 666.9 603.2)"/><ellipse cx="307.0" cy="31.6" rx="63.7" ry="50.1" fill="#8c8266" opacity="0.34" transform="rotate(-24.0 307.0 31.6)"/><ellipse cx="307.0" cy="543.6" rx="63.7" ry="50.1" fill="#8c8266" opacity="0.34" transform="rotate(-24.0 307.0 543.6)"/><ellipse cx="86.6" cy="308.1" rx="55.3" ry="62.5" fill="#8c8266" opacity="0.44" transform="rotate(-15.0 86.6 308.1)"/><ellipse cx="598.6" cy="308.1" rx="55.3" ry="62.5" fill="#8c8266" opacity="0.44" transform="rotate(-15.0 598.6 308.1)"/><ellipse cx="48.0" cy="-82.6" rx="73.0" ry="26.7" fill="#8c8266" opacity="0.36" transform="rotate(-9.2 48.0 -82.6)"/><ellipse cx="48.0" cy="429.4" rx="73.0" ry="26.7" fill="#8c8266" opacity="0.36" transform="rotate(-9.2 48.0 429.4)"/><ellipse cx="560.0" cy="-82.6" rx="73.0" ry="26.7" fill="#8c8266" opacity="0.36" transform="rotate(-9.2 560.0 -82.6)"/><ellipse cx="560.0" cy="429.4" rx="73.0" ry="26.7" fill="#8c8266" opacity="0.36" transform="rotate(-9.2 560.0 429.4)"/><ellipse cx="-70.5" cy="150.7" rx="125.5" ry="50.8" fill="#8c8266" opacity="0.40" transform="rotate(34.4 -70.5 150.7)"/><ellipse cx="-70.5" cy="662.7" rx="125.5" ry="50.8" fill="#8c8266" opacity="0.40" transform="rotate(34.4 -70.5 662.7)"/><ellipse cx="441.5" cy="150.7" rx="125.5" ry="50.8" fill="#8c8266" opacity="0.40" transform="rotate(34.4 441.5 150.7)"/><ellipse cx="441.5" cy="662.7" rx="125.5" ry="50.8" fill="#8c8266" opacity="0.40" transform="rotate(34.4 441.5 662.7)"/><ellipse cx="14.6" cy="17.6" rx="76.2" ry="29.1" fill="#8c8266" opacity="0.41" transform="rotate(-12.1 14.6 17.6)"/><ellipse cx="14.6" cy="529.6" rx="76.2" ry="29.1" fill="#8c8266" opacity="0.41" transform="rotate(-12.1 14.6 529.6)"/><ellipse cx="526.6" cy="17.6" rx="76.2" ry="29.1" fill="#8c8266" opacity="0.41" transform="rotate(-12.1 526.6 17.6)"/><ellipse cx="526.6" cy="529.6" rx="76.2" ry="29.1" fill="#8c8266" opacity="0.41" transform="rotate(-12.1 526.6 529.6)"/><ellipse cx="210.7" cy="233.8" rx="107.6" ry="60.3" fill="#8c8266" opacity="0.54" transform="rotate(-5.5 210.7 233.8)"/><ellipse cx="-104.1" cy="168.3" rx="89.1" ry="27.2" fill="#8c8266" opacity="0.50" transform="rotate(20.9 -104.1 168.3)"/><ellipse cx="-104.1" cy="680.3" rx="89.1" ry="27.2" fill="#8c8266" opacity="0.50" transform="rotate(20.9 -104.1 680.3)"/><ellipse cx="407.9" cy="168.3" rx="89.1" ry="27.2" fill="#8c8266" opacity="0.50" transform="rotate(20.9 407.9 168.3)"/><ellipse cx="407.9" cy="680.3" rx="89.1" ry="27.2" fill="#8c8266" opacity="0.50" transform="rotate(20.9 407.9 680.3)"/><ellipse cx="192.1" cy="-145.3" rx="57.6" ry="53.1" fill="#8c8266" opacity="0.45" transform="rotate(-15.7 192.1 -145.3)"/><ellipse cx="192.1" cy="366.7" rx="57.6" ry="53.1" fill="#8c8266" opacity="0.45" transform="rotate(-15.7 192.1 366.7)"/></g><g filter="url(#run)"><rect x="-124.9" y="73.8" width="4.1" height="137.5" rx="2.0" fill="#8c8266" opacity="0.45"/><rect x="-124.9" y="585.8" width="4.1" height="137.5" rx="2.0" fill="#8c8266" opacity="0.45"/><rect x="387.1" y="73.8" width="4.1" height="137.5" rx="2.0" fill="#8c8266" opacity="0.45"/><rect x="387.1" y="585.8" width="4.1" height="137.5" rx="2.0" fill="#8c8266" opacity="0.45"/><rect x="-34.3" y="-131.1" width="4.0" height="163.9" rx="2.0" fill="#8c8266" opacity="0.50"/><rect x="-34.3" y="380.9" width="4.0" height="163.9" rx="2.0" fill="#8c8266" opacity="0.50"/><rect x="477.7" y="-131.1" width="4.0" height="163.9" rx="2.0" fill="#8c8266" opacity="0.50"/><rect x="477.7" y="380.9" width="4.0" height="163.9" rx="2.0" fill="#8c8266" opacity="0.50"/><rect x="235.9" y="178.5" width="5.0" height="61.5" rx="2.5" fill="#8c8266" opacity="0.42"/><rect x="235.9" y="690.5" width="5.0" height="61.5" rx="2.5" fill="#8c8266" opacity="0.42"/><rect x="-172.0" y="-81.3" width="4.8" height="66.8" rx="2.4" fill="#8c8266" opacity="0.56"/><rect x="-172.0" y="430.7" width="4.8" height="66.8" rx="2.4" fill="#8c8266" opacity="0.56"/><rect x="340.0" y="-81.3" width="4.8" height="66.8" rx="2.4" fill="#8c8266" opacity="0.56"/><rect x="340.0" y="430.7" width="4.8" height="66.8" rx="2.4" fill="#8c8266" opacity="0.56"/><rect x="214.5" y="266.8" width="4.2" height="142.5" rx="2.1" fill="#8c8266" opacity="0.45"/><rect x="-84.0" y="-175.0" width="4.5" height="146.7" rx="2.2" fill="#8c8266" opacity="0.48"/><rect x="-84.0" y="337.0" width="4.5" height="146.7" rx="2.2" fill="#8c8266" opacity="0.48"/><rect x="428.0" y="-175.0" width="4.5" height="146.7" rx="2.2" fill="#8c8266" opacity="0.48"/><rect x="428.0" y="337.0" width="4.5" height="146.7" rx="2.2" fill="#8c8266" opacity="0.48"/><rect x="259.0" y="-4.0" width="5.5" height="117.2" rx="2.8" fill="#8c8266" opacity="0.58"/><rect x="259.0" y="508.0" width="5.5" height="117.2" rx="2.8" fill="#8c8266" opacity="0.58"/><rect x="-65.8" y="-83.7" width="2.6" height="62.4" rx="1.3" fill="#8c8266" opacity="0.50"/><rect x="-65.8" y="428.3" width="2.6" height="62.4" rx="1.3" fill="#8c8266" opacity="0.50"/><rect x="446.2" y="-83.7" width="2.6" height="62.4" rx="1.3" fill="#8c8266" opacity="0.50"/><rect x="446.2" y="428.3" width="2.6" height="62.4" rx="1.3" fill="#8c8266" opacity="0.50"/><rect x="76.9" y="153.1" width="5.9" height="105.4" rx="2.9" fill="#8c8266" opacity="0.40"/><rect x="76.9" y="665.1" width="5.9" height="105.4" rx="2.9" fill="#8c8266" opacity="0.40"/><rect x="588.9" y="153.1" width="5.9" height="105.4" rx="2.9" fill="#8c8266" opacity="0.40"/><rect x="588.9" y="665.1" width="5.9" height="105.4" rx="2.9" fill="#8c8266" opacity="0.40"/><rect x="115.5" y="206.6" width="5.4" height="110.9" rx="2.7" fill="#8c8266" opacity="0.31"/><rect x="627.5" y="206.6" width="5.4" height="110.9" rx="2.7" fill="#8c8266" opacity="0.31"/><rect x="124.5" y="236.7" width="2.4" height="145.9" rx="1.2" fill="#8c8266" opacity="0.32"/><rect x="636.5" y="236.7" width="2.4" height="145.9" rx="1.2" fill="#8c8266" opacity="0.32"/><rect x="11.8" y="241.3" width="4.1" height="63.2" rx="2.0" fill="#8c8266" opacity="0.36"/><rect x="523.8" y="241.3" width="4.1" height="63.2" rx="2.0" fill="#8c8266" opacity="0.36"/><rect x="299.7" y="109.0" width="4.8" height="189.1" rx="2.4" fill="#8c8266" opacity="0.31"/><rect x="299.7" y="621.0" width="4.8" height="189.1" rx="2.4" fill="#8c8266" opacity="0.31"/><rect x="-18.6" y="-110.4" width="5.7" height="185.5" rx="2.9" fill="#8c8266" opacity="0.61"/><rect x="-18.6" y="401.6" width="5.7" height="185.5" rx="2.9" fill="#8c8266" opacity="0.61"/><rect x="493.4" y="-110.4" width="5.7" height="185.5" rx="2.9" fill="#8c8266" opacity="0.61"/><rect x="493.4" y="401.6" width="5.7" height="185.5" rx="2.9" fill="#8c8266" opacity="0.61"/><rect x="207.4" y="146.7" width="2.9" height="67.4" rx="1.5" fill="#8c8266" opacity="0.55"/><rect x="207.4" y="658.7" width="2.9" height="67.4" rx="1.5" fill="#8c8266" opacity="0.55"/><rect x="176.2" y="304.9" width="2.9" height="159.3" rx="1.5" fill="#8c8266" opacity="0.37"/><rect x="688.2" y="304.9" width="2.9" height="159.3" rx="1.5" fill="#8c8266" opacity="0.37"/><rect x="89.8" y="236.1" width="3.5" height="78.4" rx="1.7" fill="#8c8266" opacity="0.59"/><rect x="601.8" y="236.1" width="3.5" height="78.4" rx="1.7" fill="#8c8266" opacity="0.59"/><rect x="-100.9" y="-173.9" width="3.7" height="145.9" rx="1.8" fill="#8c8266" opacity="0.41"/><rect x="-100.9" y="338.1" width="3.7" height="145.9" rx="1.8" fill="#8c8266" opacity="0.41"/><rect x="411.1" y="-173.9" width="3.7" height="145.9" rx="1.8" fill="#8c8266" opacity="0.41"/><rect x="411.1" y="338.1" width="3.7" height="145.9" rx="1.8" fill="#8c8266" opacity="0.41"/><rect x="85.7" y="82.0" width="2.8" height="163.7" rx="1.4" fill="#8c8266" opacity="0.54"/><rect x="85.7" y="594.0" width="2.8" height="163.7" rx="1.4" fill="#8c8266" opacity="0.54"/><rect x="597.7" y="82.0" width="2.8" height="163.7" rx="1.4" fill="#8c8266" opacity="0.54"/><rect x="597.7" y="594.0" width="2.8" height="163.7" rx="1.4" fill="#8c8266" opacity="0.54"/><rect x="188.9" y="204.8" width="3.6" height="121.0" rx="1.8" fill="#8c8266" opacity="0.49"/><rect x="700.9" y="204.8" width="3.6" height="121.0" rx="1.8" fill="#8c8266" opacity="0.49"/><rect x="227.2" y="265.0" width="3.9" height="65.4" rx="2.0" fill="#8c8266" opacity="0.33"/><rect x="-37.4" y="281.2" width="3.4" height="147.4" rx="1.7" fill="#8c8266" opacity="0.44"/><rect x="474.6" y="281.2" width="3.4" height="147.4" rx="1.7" fill="#8c8266" opacity="0.44"/><rect x="210.8" y="302.2" width="4.5" height="111.1" rx="2.3" fill="#8c8266" opacity="0.56"/><rect x="35.8" y="226.9" width="4.4" height="77.1" rx="2.2" fill="#8c8266" opacity="0.33"/><rect x="547.8" y="226.9" width="4.4" height="77.1" rx="2.2" fill="#8c8266" opacity="0.33"/><rect x="76.9" y="121.6" width="2.3" height="115.7" rx="1.1" fill="#8c8266" opacity="0.51"/><rect x="76.9" y="633.6" width="2.3" height="115.7" rx="1.1" fill="#8c8266" opacity="0.51"/><rect x="588.9" y="121.6" width="2.3" height="115.7" rx="1.1" fill="#8c8266" opacity="0.51"/><rect x="588.9" y="633.6" width="2.3" height="115.7" rx="1.1" fill="#8c8266" opacity="0.51"/><rect x="-71.2" y="289.6" width="3.8" height="70.9" rx="1.9" fill="#8c8266" opacity="0.32"/><rect x="440.8" y="289.6" width="3.8" height="70.9" rx="1.9" fill="#8c8266" opacity="0.32"/></g><circle cx="355.1" cy="302.7" r="0.6" fill="#5f5846" opacity="0.31"/><circle cx="466.8" cy="213.4" r="1.5" fill="#5f5846" opacity="0.45"/><circle cx="228.9" cy="170.0" r="0.5" fill="#5f5846" opacity="0.49"/><circle cx="76.7" cy="373.4" r="0.5" fill="#5f5846" opacity="0.55"/><circle cx="457.1" cy="269.1" r="1.2" fill="#5f5846" opacity="0.32"/><circle cx="282.1" cy="144.8" r="0.6" fill="#5f5846" opacity="0.57"/><circle cx="496.9" cy="379.5" r="1.0" fill="#5f5846" opacity="0.39"/><circle cx="291.7" cy="319.0" r="1.5" fill="#5f5846" opacity="0.52"/><circle cx="31.7" cy="407.6" r="1.3" fill="#5f5846" opacity="0.36"/><circle cx="213.0" cy="151.6" r="0.9" fill="#5f5846" opacity="0.61"/><circle cx="102.7" cy="371.2" r="0.6" fill="#5f5846" opacity="0.45"/><circle cx="359.2" cy="30.1" r="1.3" fill="#5f5846" opacity="0.53"/><circle cx="335.9" cy="416.8" r="1.2" fill="#5f5846" opacity="0.50"/><circle cx="206.2" cy="110.1" r="0.7" fill="#5f5846" opacity="0.42"/><circle cx="391.8" cy="360.0" r="0.8" fill="#5f5846" opacity="0.47"/><circle cx="48.7" cy="506.5" r="1.5" fill="#5f5846" opacity="0.54"/><circle cx="49.4" cy="273.8" r="0.8" fill="#5f5846" opacity="0.26"/><circle cx="274.7" cy="500.5" r="1.1" fill="#5f5846" opacity="0.45"/><circle cx="465.7" cy="92.8" r="0.9" fill="#5f5846" opacity="0.58"/><circle cx="291.1" cy="319.4" r="0.9" fill="#5f5846" opacity="0.61"/><circle cx="5.2" cy="265.4" r="1.5" fill="#5f5846" opacity="0.30"/><circle cx="147.9" cy="406.4" r="1.5" fill="#5f5846" opacity="0.45"/><circle cx="388.9" cy="404.7" r="1.0" fill="#5f5846" opacity="0.30"/><circle cx="289.2" cy="215.7" r="0.9" fill="#5f5846" opacity="0.41"/><circle cx="301.1" cy="4.5" r="1.4" fill="#5f5846" opacity="0.47"/><circle cx="446.8" cy="86.5" r="0.6" fill="#5f5846" opacity="0.44"/><circle cx="331.8" cy="202.1" r="0.7" fill="#5f5846" opacity="0.28"/><circle cx="216.9" cy="101.2" r="0.9" fill="#5f5846" opacity="0.55"/><circle cx="457.5" cy="493.4" r="1.0" fill="#5f5846" opacity="0.31"/><circle cx="302.8" cy="498.8" r="1.4" fill="#5f5846" opacity="0.53"/><circle cx="220.9" cy="51.3" r="1.1" fill="#5f5846" opacity="0.62"/><circle cx="361.6" cy="88.7" r="1.3" fill="#5f5846" opacity="0.53"/><circle cx="84.9" cy="91.9" r="1.6" fill="#5f5846" opacity="0.44"/><circle cx="56.1" cy="283.8" r="1.4" fill="#5f5846" opacity="0.42"/><circle cx="406.0" cy="177.3" r="1.3" fill="#5f5846" opacity="0.33"/><circle cx="267.0" cy="21.5" r="1.2" fill="#5f5846" opacity="0.46"/><circle cx="58.0" cy="136.7" r="0.6" fill="#5f5846" opacity="0.46"/><circle cx="398.5" cy="368.6" r="1.0" fill="#5f5846" opacity="0.32"/><circle cx="294.7" cy="496.4" r="0.6" fill="#5f5846" opacity="0.54"/><circle cx="415.9" cy="13.5" r="1.3" fill="#5f5846" opacity="0.52"/><circle cx="135.1" cy="401.2" r="1.5" fill="#5f5846" opacity="0.37"/><circle cx="500.7" cy="442.6" r="1.1" fill="#5f5846" opacity="0.41"/><circle cx="35.5" cy="139.4" r="1.3" fill="#5f5846" opacity="0.61"/><circle cx="357.2" cy="480.3" r="0.8" fill="#5f5846" opacity="0.40"/><circle cx="132.5" cy="143.7" r="0.6" fill="#5f5846" opacity="0.34"/><circle cx="202.2" cy="5.0" r="0.8" fill="#5f5846" opacity="0.34"/><circle cx="168.2" cy="23.7" r="0.7" fill="#5f5846" opacity="0.54"/><circle cx="388.2" cy="139.9" r="1.2" fill="#5f5846" opacity="0.31"/><circle cx="83.1" cy="170.5" r="1.4" fill="#5f5846" opacity="0.56"/><circle cx="170.7" cy="428.9" r="1.4" fill="#5f5846" opacity="0.54"/><circle cx="258.7" cy="344.6" r="1.4" fill="#5f5846" opacity="0.49"/><circle cx="189.4" cy="107.4" r="0.7" fill="#5f5846" opacity="0.39"/><circle cx="395.5" cy="328.0" r="1.2" fill="#5f5846" opacity="0.34"/><circle cx="28.5" cy="420.9" r="1.2" fill="#5f5846" opacity="0.55"/><circle cx="73.8" cy="99.6" r="1.5" fill="#5f5846" opacity="0.57"/><circle cx="507.7" cy="371.7" r="0.7" fill="#5f5846" opacity="0.57"/><circle cx="488.7" cy="42.6" r="0.9" fill="#5f5846" opacity="0.57"/><circle cx="35.7" cy="116.9" r="1.0" fill="#5f5846" opacity="0.37"/><circle cx="248.2" cy="167.8" r="1.6" fill="#5f5846" opacity="0.34"/><circle cx="266.8" cy="334.6" r="1.1" fill="#5f5846" opacity="0.41"/><circle cx="474.5" cy="384.1" r="1.1" fill="#5f5846" opacity="0.54"/><circle cx="232.2" cy="97.6" r="1.5" fill="#5f5846" opacity="0.28"/><circle cx="410.8" cy="293.6" r="1.0" fill="#5f5846" opacity="0.48"/><circle cx="281.8" cy="366.8" r="1.1" fill="#5f5846" opacity="0.42"/><circle cx="300.5" cy="33.6" r="1.5" fill="#5f5846" opacity="0.42"/><circle cx="89.1" cy="404.5" r="1.5" fill="#5f5846" opacity="0.33"/><circle cx="359.7" cy="134.8" r="0.9" fill="#5f5846" opacity="0.40"/><circle cx="370.4" cy="315.6" r="1.5" fill="#5f5846" opacity="0.40"/><circle cx="417.1" cy="395.4" r="0.9" fill="#5f5846" opacity="0.33"/><circle cx="191.3" cy="63.8" r="1.1" fill="#5f5846" opacity="0.51"/><circle cx="220.9" cy="310.1" r="1.0" fill="#5f5846" opacity="0.33"/><circle cx="19.3" cy="44.7" r="0.9" fill="#5f5846" opacity="0.42"/><circle cx="411.8" cy="40.3" r="1.3" fill="#5f5846" opacity="0.54"/><circle cx="364.0" cy="165.7" r="1.4" fill="#5f5846" opacity="0.26"/><circle cx="99.3" cy="398.7" r="1.0" fill="#5f5846" opacity="0.38"/><circle cx="67.1" cy="482.0" r="1.0" fill="#5f5846" opacity="0.26"/><circle cx="184.2" cy="326.1" r="0.9" fill="#5f5846" opacity="0.61"/><circle cx="339.8" cy="340.6" r="1.3" fill="#5f5846" opacity="0.51"/><circle cx="236.8" cy="496.4" r="1.1" fill="#5f5846" opacity="0.42"/><circle cx="322.8" cy="95.2" r="1.2" fill="#5f5846" opacity="0.36"/><circle cx="104.6" cy="348.6" r="1.1" fill="#5f5846" opacity="0.29"/><circle cx="425.1" cy="314.4" r="1.2" fill="#5f5846" opacity="0.53"/><circle cx="155.8" cy="231.1" r="1.3" fill="#5f5846" opacity="0.62"/><circle cx="233.1" cy="3.6" r="1.3" fill="#5f5846" opacity="0.58"/><circle cx="157.0" cy="21.7" r="1.0" fill="#5f5846" opacity="0.51"/><circle cx="135.2" cy="448.7" r="1.2" fill="#5f5846" opacity="0.41"/><circle cx="341.6" cy="318.8" r="1.4" fill="#5f5846" opacity="0.56"/><circle cx="56.6" cy="453.8" r="1.5" fill="#5f5846" opacity="0.36"/><circle cx="97.5" cy="109.2" r="1.5" fill="#5f5846" opacity="0.59"/><circle cx="384.8" cy="248.2" r="1.5" fill="#5f5846" opacity="0.51"/><circle cx="369.0" cy="54.9" r="0.5" fill="#5f5846" opacity="0.57"/><circle cx="6.7" cy="343.8" r="1.3" fill="#5f5846" opacity="0.45"/><circle cx="121.4" cy="224.3" r="0.8" fill="#5f5846" opacity="0.31"/><circle cx="90.9" cy="424.9" r="1.1" fill="#5f5846" opacity="0.52"/><circle cx="77.2" cy="394.4" r="0.7" fill="#5f5846" opacity="0.42"/><circle cx="410.5" cy="302.0" r="0.8" fill="#5f5846" opacity="0.50"/><circle cx="5.8" cy="385.7" r="0.5" fill="#5f5846" opacity="0.53"/><circle cx="395.3" cy="389.1" r="1.4" fill="#5f5846" opacity="0.47"/><circle cx="236.9" cy="427.6" r="0.8" fill="#5f5846" opacity="0.31"/><circle cx="343.5" cy="180.0" r="1.4" fill="#5f5846" opacity="0.39"/><circle cx="284.3" cy="33.0" r="0.7" fill="#5f5846" opacity="0.35"/><circle cx="251.7" cy="313.9" r="1.1" fill="#5f5846" opacity="0.53"/><circle cx="168.4" cy="459.5" r="0.6" fill="#5f5846" opacity="0.28"/><circle cx="328.2" cy="99.3" r="0.6" fill="#5f5846" opacity="0.43"/><circle cx="373.7" cy="90.8" r="1.6" fill="#5f5846" opacity="0.38"/><circle cx="140.3" cy="150.6" r="1.6" fill="#5f5846" opacity="0.48"/><circle cx="440.7" cy="9.9" r="1.2" fill="#5f5846" opacity="0.50"/><circle cx="461.1" cy="483.8" r="0.6" fill="#5f5846" opacity="0.49"/><circle cx="256.9" cy="460.1" r="0.6" fill="#5f5846" opacity="0.27"/><circle cx="194.4" cy="168.4" r="1.3" fill="#5f5846" opacity="0.29"/><circle cx="490.3" cy="385.1" r="0.6" fill="#5f5846" opacity="0.28"/><circle cx="63.1" cy="59.0" r="0.7" fill="#5f5846" opacity="0.53"/><circle cx="133.7" cy="50.1" r="0.8" fill="#5f5846" opacity="0.46"/><circle cx="359.4" cy="478.4" r="1.1" fill="#5f5846" opacity="0.35"/><circle cx="303.9" cy="137.4" r="1.0" fill="#5f5846" opacity="0.57"/><circle cx="378.6" cy="456.4" r="1.3" fill="#5f5846" opacity="0.46"/><circle cx="71.3" cy="366.4" r="1.6" fill="#5f5846" opacity="0.51"/><circle cx="43.3" cy="49.0" r="0.7" fill="#5f5846" opacity="0.53"/><circle cx="69.0" cy="177.2" r="1.5" fill="#5f5846" opacity="0.43"/><circle cx="162.1" cy="148.5" r="1.6" fill="#5f5846" opacity="0.37"/><circle cx="163.4" cy="462.1" r="0.9" fill="#5f5846" opacity="0.41"/><circle cx="307.6" cy="294.0" r="1.5" fill="#5f5846" opacity="0.41"/><circle cx="332.8" cy="248.5" r="1.1" fill="#5f5846" opacity="0.57"/><circle cx="408.9" cy="69.2" r="1.3" fill="#5f5846" opacity="0.33"/><circle cx="180.3" cy="18.0" r="0.7" fill="#5f5846" opacity="0.44"/><circle cx="470.3" cy="24.1" r="1.3" fill="#5f5846" opacity="0.25"/><circle cx="129.1" cy="484.7" r="1.0" fill="#5f5846" opacity="0.62"/><circle cx="449.9" cy="89.0" r="0.8" fill="#5f5846" opacity="0.62"/><circle cx="236.7" cy="390.1" r="0.8" fill="#5f5846" opacity="0.27"/><circle cx="296.0" cy="50.9" r="0.6" fill="#5f5846" opacity="0.42"/><circle cx="184.5" cy="424.6" r="1.0" fill="#5f5846" opacity="0.40"/><circle cx="142.5" cy="63.3" r="0.7" fill="#5f5846" opacity="0.45"/><circle cx="441.3" cy="69.7" r="1.4" fill="#5f5846" opacity="0.62"/><circle cx="155.2" cy="170.4" r="1.1" fill="#5f5846" opacity="0.50"/><circle cx="29.9" cy="59.7" r="1.4" fill="#5f5846" opacity="0.57"/><circle cx="28.9" cy="371.7" r="0.8" fill="#5f5846" opacity="0.40"/><circle cx="40.5" cy="302.7" r="1.3" fill="#5f5846" opacity="0.52"/><circle cx="167.0" cy="210.6" r="1.1" fill="#5f5846" opacity="0.62"/><circle cx="190.7" cy="374.1" r="0.8" fill="#5f5846" opacity="0.56"/><circle cx="479.6" cy="426.0" r="1.6" fill="#5f5846" opacity="0.39"/><circle cx="116.5" cy="41.5" r="1.3" fill="#5f5846" opacity="0.51"/><circle cx="357.4" cy="64.0" r="0.9" fill="#5f5846" opacity="0.56"/><circle cx="313.6" cy="328.8" r="1.1" fill="#5f5846" opacity="0.29"/><circle cx="327.3" cy="225.8" r="1.2" fill="#5f5846" opacity="0.28"/><circle cx="190.3" cy="41.0" r="0.7" fill="#5f5846" opacity="0.58"/><circle cx="310.8" cy="226.4" r="0.6" fill="#5f5846" opacity="0.30"/><circle cx="341.7" cy="448.4" r="0.8" fill="#5f5846" opacity="0.34"/><circle cx="74.2" cy="390.3" r="0.7" fill="#5f5846" opacity="0.44"/><circle cx="412.5" cy="350.0" r="1.2" fill="#5f5846" opacity="0.40"/><circle cx="344.0" cy="305.4" r="0.7" fill="#5f5846" opacity="0.27"/><circle cx="164.9" cy="313.8" r="1.5" fill="#5f5846" opacity="0.35"/><circle cx="18.6" cy="158.2" r="1.2" fill="#5f5846" opacity="0.44"/><circle cx="198.1" cy="343.3" r="1.4" fill="#5f5846" opacity="0.29"/><circle cx="141.4" cy="67.7" r="0.6" fill="#5f5846" opacity="0.39"/><circle cx="286.7" cy="117.5" r="1.3" fill="#5f5846" opacity="0.33"/><circle cx="413.8" cy="467.3" r="1.0" fill="#5f5846" opacity="0.45"/><circle cx="417.0" cy="277.1" r="1.2" fill="#5f5846" opacity="0.25"/><circle cx="437.7" cy="486.9" r="1.2" fill="#5f5846" opacity="0.34"/><circle cx="459.1" cy="187.5" r="1.5" fill="#5f5846" opacity="0.48"/><circle cx="102.4" cy="430.1" r="1.4" fill="#5f5846" opacity="0.25"/><circle cx="504.9" cy="304.9" r="1.1" fill="#5f5846" opacity="0.27"/><circle cx="128.5" cy="219.6" r="0.9" fill="#5f5846" opacity="0.47"/><circle cx="349.3" cy="2.8" r="0.8" fill="#5f5846" opacity="0.29"/><circle cx="231.7" cy="413.9" r="1.5" fill="#5f5846" opacity="0.62"/><circle cx="146.1" cy="509.4" r="1.3" fill="#5f5846" opacity="0.44"/><circle cx="493.1" cy="208.6" r="1.2" fill="#5f5846" opacity="0.52"/><circle cx="206.4" cy="257.5" r="0.9" fill="#5f5846" opacity="0.25"/><circle cx="347.8" cy="40.4" r="0.8" fill="#5f5846" opacity="0.53"/><circle cx="448.2" cy="425.8" r="1.5" fill="#5f5846" opacity="0.48"/><circle cx="273.2" cy="159.3" r="0.5" fill="#5f5846" opacity="0.61"/><circle cx="4.1" cy="352.3" r="1.4" fill="#5f5846" opacity="0.56"/><circle cx="78.9" cy="249.1" r="0.5" fill="#5f5846" opacity="0.36"/><circle cx="36.7" cy="90.4" r="1.3" fill="#5f5846" opacity="0.29"/><circle cx="404.1" cy="94.8" r="1.3" fill="#5f5846" opacity="0.31"/><circle cx="107.6" cy="458.3" r="1.1" fill="#5f5846" opacity="0.60"/><circle cx="309.7" cy="281.9" r="1.0" fill="#5f5846" opacity="0.58"/><circle cx="294.1" cy="71.2" r="0.6" fill="#5f5846" opacity="0.53"/><circle cx="108.7" cy="388.0" r="1.6" fill="#5f5846" opacity="0.33"/><circle cx="416.2" cy="25.0" r="0.7" fill="#5f5846" opacity="0.25"/><circle cx="292.1" cy="253.8" r="1.4" fill="#5f5846" opacity="0.53"/><circle cx="438.4" cy="484.7" r="1.4" fill="#5f5846" opacity="0.27"/><circle cx="104.8" cy="269.4" r="1.4" fill="#5f5846" opacity="0.51"/><circle cx="14.2" cy="351.6" r="1.2" fill="#5f5846" opacity="0.48"/><circle cx="344.4" cy="169.4" r="0.9" fill="#5f5846" opacity="0.41"/><circle cx="221.7" cy="10.9" r="0.8" fill="#5f5846" opacity="0.48"/><circle cx="223.6" cy="398.7" r="0.6" fill="#5f5846" opacity="0.38"/><circle cx="377.4" cy="47.0" r="1.4" fill="#5f5846" opacity="0.56"/><circle cx="485.6" cy="462.6" r="1.4" fill="#5f5846" opacity="0.45"/><circle cx="89.3" cy="497.7" r="0.7" fill="#5f5846" opacity="0.57"/><circle cx="76.5" cy="356.6" r="0.8" fill="#5f5846" opacity="0.54"/><circle cx="452.2" cy="141.6" r="0.9" fill="#5f5846" opacity="0.55"/><circle cx="86.3" cy="503.8" r="0.9" fill="#5f5846" opacity="0.34"/><circle cx="322.4" cy="388.0" r="1.5" fill="#5f5846" opacity="0.43"/><circle cx="230.2" cy="200.4" r="0.8" fill="#5f5846" opacity="0.55"/><circle cx="370.2" cy="55.1" r="1.5" fill="#5f5846" opacity="0.32"/><circle cx="59.5" cy="156.3" r="1.3" fill="#5f5846" opacity="0.54"/><circle cx="180.5" cy="339.9" r="1.2" fill="#5f5846" opacity="0.28"/><circle cx="332.6" cy="496.2" r="1.4" fill="#5f5846" opacity="0.35"/><circle cx="82.7" cy="167.9" r="1.0" fill="#5f5846" opacity="0.59"/><circle cx="479.2" cy="315.7" r="1.0" fill="#5f5846" opacity="0.29"/><circle cx="92.5" cy="210.3" r="1.0" fill="#5f5846" opacity="0.51"/><circle cx="288.5" cy="318.1" r="0.7" fill="#5f5846" opacity="0.40"/><circle cx="27.8" cy="329.3" r="0.8" fill="#5f5846" opacity="0.47"/><circle cx="231.5" cy="401.7" r="0.6" fill="#5f5846" opacity="0.41"/><circle cx="291.5" cy="102.7" r="1.1" fill="#5f5846" opacity="0.41"/><circle cx="417.9" cy="328.2" r="1.6" fill="#5f5846" opacity="0.42"/><circle cx="273.1" cy="396.8" r="1.5" fill="#5f5846" opacity="0.28"/><circle cx="220.7" cy="421.8" r="1.4" fill="#5f5846" opacity="0.52"/><circle cx="465.1" cy="398.7" r="0.6" fill="#5f5846" opacity="0.58"/><circle cx="90.5" cy="268.5" r="1.3" fill="#5f5846" opacity="0.37"/><circle cx="166.2" cy="268.3" r="1.2" fill="#5f5846" opacity="0.31"/><circle cx="480.9" cy="495.2" r="1.1" fill="#5f5846" opacity="0.39"/><circle cx="422.7" cy="266.2" r="0.6" fill="#5f5846" opacity="0.56"/><circle cx="424.9" cy="8.4" r="0.7" fill="#5f5846" opacity="0.62"/><circle cx="17.6" cy="421.4" r="1.4" fill="#5f5846" opacity="0.61"/><circle cx="334.0" cy="376.6" r="0.9" fill="#5f5846" opacity="0.49"/><circle cx="253.8" cy="230.8" r="1.1" fill="#5f5846" opacity="0.51"/><circle cx="383.4" cy="84.6" r="1.1" fill="#5f5846" opacity="0.32"/><circle cx="243.8" cy="421.8" r="0.5" fill="#5f5846" opacity="0.51"/><circle cx="72.9" cy="503.5" r="1.1" fill="#5f5846" opacity="0.38"/><circle cx="487.0" cy="175.7" r="0.9" fill="#5f5846" opacity="0.34"/><circle cx="486.1" cy="208.6" r="1.4" fill="#5f5846" opacity="0.58"/><circle cx="509.3" cy="478.1" r="1.1" fill="#5f5846" opacity="0.62"/><circle cx="104.0" cy="504.6" r="0.8" fill="#5f5846" opacity="0.36"/><circle cx="216.9" cy="389.4" r="0.8" fill="#5f5846" opacity="0.62"/><circle cx="430.3" cy="315.0" r="0.8" fill="#5f5846" opacity="0.61"/><circle cx="393.9" cy="458.5" r="1.3" fill="#5f5846" opacity="0.48"/><circle cx="90.3" cy="247.0" r="1.2" fill="#5f5846" opacity="0.25"/><circle cx="310.2" cy="73.4" r="1.3" fill="#5f5846" opacity="0.57"/><circle cx="265.2" cy="84.5" r="0.9" fill="#5f5846" opacity="0.48"/><circle cx="59.6" cy="430.0" r="1.4" fill="#5f5846" opacity="0.28"/><circle cx="125.5" cy="376.3" r="0.7" fill="#5f5846" opacity="0.27"/><circle cx="9.4" cy="422.1" r="1.0" fill="#5f5846" opacity="0.51"/><circle cx="42.2" cy="500.4" r="1.1" fill="#5f5846" opacity="0.27"/><circle cx="408.6" cy="182.1" r="0.6" fill="#5f5846" opacity="0.26"/><circle cx="385.5" cy="316.1" r="1.6" fill="#5f5846" opacity="0.58"/><circle cx="138.6" cy="82.3" r="1.2" fill="#5f5846" opacity="0.60"/><circle cx="482.0" cy="323.8" r="0.7" fill="#5f5846" opacity="0.25"/><circle cx="194.9" cy="275.1" r="0.8" fill="#5f5846" opacity="0.60"/><circle cx="270.7" cy="332.1" r="0.8" fill="#5f5846" opacity="0.31"/><circle cx="215.1" cy="265.4" r="0.6" fill="#5f5846" opacity="0.61"/><circle cx="85.4" cy="189.5" r="1.5" fill="#5f5846" opacity="0.34"/><circle cx="246.4" cy="39.1" r="1.3" fill="#5f5846" opacity="0.48"/><circle cx="88.7" cy="39.2" r="0.8" fill="#5f5846" opacity="0.41"/><circle cx="131.3" cy="206.6" r="1.6" fill="#5f5846" opacity="0.59"/><circle cx="371.8" cy="97.9" r="0.9" fill="#5f5846" opacity="0.34"/><circle cx="68.1" cy="146.4" r="0.5" fill="#5f5846" opacity="0.55"/><circle cx="197.6" cy="466.2" r="0.6" fill="#5f5846" opacity="0.52"/><circle cx="314.3" cy="244.9" r="1.3" fill="#5f5846" opacity="0.26"/><circle cx="450.2" cy="462.8" r="1.5" fill="#5f5846" opacity="0.49"/><circle cx="32.7" cy="103.0" r="1.2" fill="#5f5846" opacity="0.52"/><circle cx="147.8" cy="22.6" r="1.1" fill="#5f5846" opacity="0.61"/><circle cx="360.1" cy="331.1" r="1.1" fill="#5f5846" opacity="0.39"/><circle cx="225.7" cy="110.6" r="0.9" fill="#5f5846" opacity="0.60"/><circle cx="15.0" cy="312.0" r="0.7" fill="#5f5846" opacity="0.48"/><circle cx="365.9" cy="119.0" r="1.3" fill="#5f5846" opacity="0.53"/><circle cx="208.3" cy="59.0" r="1.2" fill="#5f5846" opacity="0.36"/><circle cx="50.4" cy="376.7" r="0.6" fill="#5f5846" opacity="0.57"/><circle cx="59.4" cy="74.1" r="1.3" fill="#5f5846" opacity="0.38"/><circle cx="280.3" cy="118.4" r="0.8" fill="#5f5846" opacity="0.51"/></svg>